<svg xmlns="http://www.w3.org/2000/svg" viewBox="0 0 260.59 52.68"><defs><style>.cls-1{fill:#0b1c63;}</style></defs><g id="Capa_2" data-name="Capa 2"><g id="Capa_1-2" data-name="Capa 1"><path class="cls-1" d="M61.06,24V5.05h8a11.53,11.53,0,0,1,5.33,1.19A8.8,8.8,0,0,1,78,9.56a9.44,9.44,0,0,1,1.28,4.94A9.44,9.44,0,0,1,78,19.44a8.8,8.8,0,0,1-3.59,3.32A11.53,11.53,0,0,1,69,24Zm2.7-2.35h5.1a8.79,8.79,0,0,0,4.07-.89,6.48,6.48,0,0,0,2.66-2.5,7.18,7.18,0,0,0,.94-3.71,7.2,7.2,0,0,0-.94-3.73,6.5,6.5,0,0,0-2.66-2.48,8.79,8.79,0,0,0-4.07-.89h-5.1Z"/><path class="cls-1" d="M80,24l8.56-18.9h2.67L99.78,24H96.94L89.3,6.56h1.08L82.74,24Zm3.65-4.73.73-2.16H95l.79,2.16ZM87.84,3.51,91.52,0h3.29L90.28,3.51Z"/><path class="cls-1" d="M106.83,24,98.51,5.05h2.92l7.64,17.44h-1.68l7.7-17.44h2.7L109.5,24Z"/><path class="cls-1" d="M116.52,24l8.56-18.9h2.67L136.34,24H133.5L125.86,6.56h1.08L119.3,24Zm3.64-4.73.73-2.16h10.64l.78,2.16Z"/><path class="cls-1" d="M138.87,24V5.05h2.7V21.6h10.24V24Z"/><path class="cls-1" d="M162.77,24.17a11,11,0,0,1-4-.73,9.73,9.73,0,0,1-3.2-2,9.88,9.88,0,0,1-2.11-10.73,9.51,9.51,0,0,1,2.11-3.07,9.69,9.69,0,0,1,3.19-2,11.42,11.42,0,0,1,8,0,9.48,9.48,0,0,1,3.19,2A9.19,9.19,0,0,1,172,10.65a9.75,9.75,0,0,1,.75,3.85,9.73,9.73,0,0,1-.75,3.86A9.11,9.11,0,0,1,170,21.42a9.36,9.36,0,0,1-3.19,2A10.8,10.8,0,0,1,162.77,24.17Zm0-2.41a7.76,7.76,0,0,0,2.93-.54A6.92,6.92,0,0,0,168,19.7a7.14,7.14,0,0,0,1.54-2.31,7.71,7.71,0,0,0,0-5.77A7.2,7.2,0,0,0,168,9.32a6.68,6.68,0,0,0-2.32-1.54,7.76,7.76,0,0,0-2.93-.54,7.67,7.67,0,0,0-2.9.54,7,7,0,0,0-2.34,1.54,7.23,7.23,0,0,0-1.55,2.3,7.35,7.35,0,0,0-.55,2.88,7.4,7.4,0,0,0,.55,2.89,6.95,6.95,0,0,0,3.89,3.83A7.67,7.67,0,0,0,162.74,21.76Z"/><path class="cls-1" d="M182.15,24.17A12.68,12.68,0,0,1,178,23.5a8.43,8.43,0,0,1-3.1-1.71l1-2.11a8.94,8.94,0,0,0,2.75,1.57,10,10,0,0,0,3.48.62,8,8,0,0,0,2.68-.38,3.16,3.16,0,0,0,1.51-1,2.49,2.49,0,0,0,.49-1.5,2,2,0,0,0-.64-1.56,4.55,4.55,0,0,0-1.65-1,20.48,20.48,0,0,0-2.22-.64c-.81-.17-1.63-.39-2.45-.63a10.74,10.74,0,0,1-2.24-.93A4.6,4.6,0,0,1,176,12.7a4.39,4.39,0,0,1-.62-2.47,4.89,4.89,0,0,1,.77-2.68,5.28,5.28,0,0,1,2.37-2,9.7,9.7,0,0,1,4.09-.75,12.56,12.56,0,0,1,3.27.44,8.91,8.91,0,0,1,2.81,1.24l-.89,2.16a8.91,8.91,0,0,0-2.57-1.18,10.13,10.13,0,0,0-2.62-.36,7.25,7.25,0,0,0-2.62.4,3.16,3.16,0,0,0-1.49,1.08,2.57,2.57,0,0,0-.48,1.52,2.07,2.07,0,0,0,.64,1.59,4.53,4.53,0,0,0,1.65.94,20.48,20.48,0,0,0,2.22.64c.81.19,1.63.4,2.45.63a10.73,10.73,0,0,1,2.24.92,4.64,4.64,0,0,1,1.63,1.51,4.38,4.38,0,0,1,.62,2.43,4.86,4.86,0,0,1-.78,2.66,5.37,5.37,0,0,1-2.42,2A9.88,9.88,0,0,1,182.15,24.17Z"/><path class="cls-1" d="M61.06,52V33.05h7.37a10.39,10.39,0,0,1,4.24.78,6,6,0,0,1,2.7,2.27,6.46,6.46,0,0,1,.95,3.54,6.39,6.39,0,0,1-.95,3.52,6.12,6.12,0,0,1-2.7,2.27,10.22,10.22,0,0,1-4.24.8H62.55L63.76,45v7Zm2.7-6.72-1.21-1.35h5.8a6,6,0,0,0,3.93-1.11,3.84,3.84,0,0,0,1.34-3.13,3.86,3.86,0,0,0-1.34-3.14,6.08,6.08,0,0,0-3.93-1.1h-5.8l1.21-1.35Z"/><path class="cls-1" d="M80,52V33.05h7.38a8.79,8.79,0,0,1,5.77,1.74,5.93,5.93,0,0,1,2.11,4.85,6.39,6.39,0,0,1-1,3.52,6.1,6.1,0,0,1-2.7,2.26,10.37,10.37,0,0,1-4.23.78H81.5L82.71,45v7Zm2.7-6.72L81.5,43.9h5.8a6,6,0,0,0,3.93-1.12,3.86,3.86,0,0,0,1.34-3.14,3.86,3.86,0,0,0-1.34-3.14,6.08,6.08,0,0,0-3.93-1.1H81.5l1.21-1.35ZM92.65,52l-4.81-6.86h2.89L95.59,52Z"/><path class="cls-1" d="M107.91,52.17a11,11,0,0,1-4-.73,9.63,9.63,0,0,1-3.2-2,9.46,9.46,0,0,1-2.11-3.07,10,10,0,0,1,0-7.66,9.35,9.35,0,0,1,2.11-3.07,9.75,9.75,0,0,1,3.18-2,11,11,0,0,1,4-.73,10.8,10.8,0,0,1,4,.72,9.48,9.48,0,0,1,3.19,2,9.34,9.34,0,0,1,2.09,3.08,10.41,10.41,0,0,1,0,7.71,9.26,9.26,0,0,1-2.09,3.06,9.36,9.36,0,0,1-3.19,2A10.8,10.8,0,0,1,107.91,52.17Zm0-2.41a7.76,7.76,0,0,0,2.93-.54,7,7,0,0,0,2.32-1.52,7.14,7.14,0,0,0,1.54-2.31,7.84,7.84,0,0,0,0-5.77,7.2,7.2,0,0,0-1.54-2.3,6.78,6.78,0,0,0-2.32-1.54,7.76,7.76,0,0,0-2.93-.54,7.64,7.64,0,0,0-2.9.54,7,7,0,0,0-2.34,1.54,7.07,7.07,0,0,0-1.55,2.3,7.71,7.71,0,0,0,0,5.77,7,7,0,0,0,1.55,2.31A7.22,7.22,0,0,0,105,49.22,7.64,7.64,0,0,0,107.88,49.76Z"/><path class="cls-1" d="M121.78,52V33.05h7.37a10.39,10.39,0,0,1,4.24.78,6,6,0,0,1,2.7,2.27,6.46,6.46,0,0,1,.95,3.54,6.39,6.39,0,0,1-.95,3.52,6.12,6.12,0,0,1-2.7,2.27,10.22,10.22,0,0,1-4.24.8h-5.88L124.48,45v7Zm2.7-6.72-1.21-1.35h5.8A6,6,0,0,0,133,42.77a3.84,3.84,0,0,0,1.34-3.13A3.86,3.86,0,0,0,133,36.5a6.08,6.08,0,0,0-3.93-1.1h-5.8l1.21-1.35Z"/><path class="cls-1" d="M140.74,52V33.05h2.7V52Z"/><path class="cls-1" d="M148.84,52V33.05h13.34V35.4H151.54V49.6h11V52Zm2.45-8.45V41.2H161v2.3Z"/><path class="cls-1" d="M166.66,52V33.05h8A11.47,11.47,0,0,1,180,34.24a8.82,8.82,0,0,1,3.6,3.32,10.17,10.17,0,0,1,0,9.88,8.82,8.82,0,0,1-3.6,3.32A11.47,11.47,0,0,1,174.62,52Zm2.7-2.35h5.1a8.72,8.72,0,0,0,4.06-.89,6.42,6.42,0,0,0,2.66-2.5,7.76,7.76,0,0,0,0-7.44,6.44,6.44,0,0,0-2.66-2.48,8.72,8.72,0,0,0-4.06-.89h-5.1Z"/><path class="cls-1" d="M185.56,52l8.56-18.9h2.67L205.38,52h-2.84L194.9,34.56H196L188.34,52Zm3.64-4.73.73-2.16h10.64l.78,2.16Z"/><path class="cls-1" d="M207.91,52V33.05h8a11.53,11.53,0,0,1,5.33,1.19,8.73,8.73,0,0,1,3.59,3.32,9.35,9.35,0,0,1,1.28,4.94,9.35,9.35,0,0,1-1.28,4.94,8.73,8.73,0,0,1-3.59,3.32A11.53,11.53,0,0,1,215.88,52Zm2.7-2.35h5.11a8.75,8.75,0,0,0,4.06-.89,6.48,6.48,0,0,0,2.66-2.5,7.83,7.83,0,0,0,0-7.44,6.5,6.5,0,0,0-2.66-2.48,8.75,8.75,0,0,0-4.06-.89h-5.11Z"/><path class="cls-1" d="M229.94,52V33.05h13.34V35.4H232.64V49.6h11V52Zm2.46-8.45V41.2h9.72v2.3Z"/><path class="cls-1" d="M253.27,52.17a12.68,12.68,0,0,1-4.13-.67,8.43,8.43,0,0,1-3.1-1.71l1-2.11a8.71,8.71,0,0,0,2.75,1.57,10,10,0,0,0,3.48.62,8,8,0,0,0,2.68-.38,3.21,3.21,0,0,0,1.51-1,2.49,2.49,0,0,0,.48-1.5,2,2,0,0,0-.63-1.56,4.55,4.55,0,0,0-1.65-1,20.68,20.68,0,0,0-2.23-.64c-.81-.17-1.62-.39-2.44-.63a10.52,10.52,0,0,1-2.24-.93,4.52,4.52,0,0,1-1.63-1.53,4.39,4.39,0,0,1-.62-2.47,5,5,0,0,1,.76-2.68,5.36,5.36,0,0,1,2.38-2,9.67,9.67,0,0,1,4.09-.75,12.56,12.56,0,0,1,3.27.44,9,9,0,0,1,2.81,1.24l-.89,2.16a9,9,0,0,0-2.57-1.18,10.13,10.13,0,0,0-2.62-.36,7.25,7.25,0,0,0-2.62.4,3.24,3.24,0,0,0-1.5,1.08,2.63,2.63,0,0,0-.47,1.52,2.07,2.07,0,0,0,.64,1.59,4.56,4.56,0,0,0,1.64.94,21.37,21.37,0,0,0,2.23.64c.81.19,1.62.4,2.44.63a10.51,10.51,0,0,1,2.24.92A4.67,4.67,0,0,1,260,44.36a4.38,4.38,0,0,1,.62,2.43,4.86,4.86,0,0,1-.78,2.66,5.42,5.42,0,0,1-2.42,2A9.88,9.88,0,0,1,253.27,52.17Z"/><path class="cls-1" d="M48.52,24.92C47,13.28,36.42,3.86,24.66,3.93c-3.81,0-7.62,0-11.43,0H.31c-.31,0-.31,0-.31.3V9.79c0,.19,0,.2.21.2h24a18.34,18.34,0,0,1,4.18.46c9.36,2,16,11.93,13.89,21.54A18.42,18.42,0,0,1,24.45,46.6c-1.93,0-3.86,0-5.79,0-.43,0-.39,0-.39-.4V28.54c0-.22,0-.22-.21-.23H12.57c-.42,0-.37,0-.37.37V52.32c0,.4,0,.35.35.35H24.24a25.45,25.45,0,0,0,3.69-.27A24.48,24.48,0,0,0,48.52,24.92Z"/><path class="cls-1" d="M25.92,22.39a6.17,6.17,0,0,1,4.54,5.35A5.94,5.94,0,0,1,28,33.22a5.88,5.88,0,0,1-3.33,1.18c-.22,0-.23,0-.23.24v5.62c0,.21,0,.23.22.22.58,0,1.17-.07,1.74-.17a11.86,11.86,0,0,0,7-3.79,12.11,12.11,0,0,0-2.11-18.27,12,12,0,0,0-7-2.14q-11.86,0-23.73,0c-.48,0-.44-.06-.44.44V34.38H0v18c0,.24,0,.24.25.24H5.63c.48,0,.44.08.44-.44V22.48c0-.29,0-.29.29-.29h18A6.37,6.37,0,0,1,25.92,22.39Z"/></g></g></svg>