<svg xmlns="http://www.w3.org/2000/svg" viewBox="0 0 51.03 51.01"><defs><style>.cls-1{fill:#0b1c63;}</style></defs><g id="Capa_2" data-name="Capa 2"><g id="Capa_1-2" data-name="Capa 1"><path class="cls-1" d="M50.76,22C49.21,9.8,38.1-.06,25.8,0c-4,0-8,0-12,0H.32C0,0,0,0,0,.32V6.15c0,.2,0,.2.22.21H25.35a19.67,19.67,0,0,1,4.39.47C39.52,8.9,46.52,19.32,44.26,29.37A19.26,19.26,0,0,1,25.58,44.65c-2,0-4,0-6,0-.46,0-.41.05-.41-.42q0-9.24,0-18.48c0-.22,0-.23-.23-.24H13.15c-.44,0-.39,0-.39.38V50.64c0,.42,0,.37.37.37H25.36a27.58,27.58,0,0,0,3.85-.27C42.86,48.84,52.83,35.62,50.76,22Z"/><path class="cls-1" d="M27.12,19.33a6.44,6.44,0,0,1,4.74,5.59,6.46,6.46,0,0,1-6.1,7c-.24,0-.24,0-.24.24V38c0,.22,0,.24.22.22.61,0,1.23-.07,1.83-.17a12.42,12.42,0,0,0,7.29-4A12.28,12.28,0,0,0,38,23.28,12.42,12.42,0,0,0,32.65,15a12.63,12.63,0,0,0-7.37-2.23H.46c-.5,0-.46-.07-.46.46V31.87H0v15.7c0,1.06,0,2.12,0,3.18C0,51,0,51,.27,51H5.89c.51,0,.46.08.46-.46V19.42c0-.3,0-.31.3-.31H25.47A6.55,6.55,0,0,1,27.12,19.33Z"/></g></g></svg>